<svg xmlns="http://www.w3.org/2000/svg" viewBox="15 0 500 500" width="500px" height="500px">
    <path fill="#494949" fill-rule="nonzero" d="M265 300a50 50 0 110-100 50 50 0 010 100zm0-15a35 35 0 100-70 35 35 0 000 70zM189 65v36c2 11 21 55 35 81-18-13-58-43-69-58a92 92 0 01-17-29l-71 40v86c9 5 23 15 31 18 11 4 59 9 88 10-21 9-66 29-85 31-16 3-27 1-34 0v85l69 39c9-4 24-12 31-17 9-7 37-46 52-71-2 22-8 71-15 89-6 15-13 23-17 29l79 45 73-42c1-9 2-28 0-38-1-11-21-55-34-81 18 14 57 44 69 59 11 13 15 24 17 30l74-42v-84c-8-5-24-15-34-19s-58-9-87-10c21-10 66-29 85-31 18-3 29-1 36 1v-87l-70-40-31 19c-9 7-37 46-53 70 3-22 9-71 16-89 6-15 13-24 18-29l-79-45-77 44zm77-65l217 125v250L266 500 49 375V125L266 0z"/>
</svg>
